<svg id="Layer_1" data-name="Layer 1" xmlns="http://www.w3.org/2000/svg" viewBox="0 0 1121.25 223.04"><defs><style>.cls-1{font-size:198px;fill:red;font-family:Roboto-Medium, Roboto;font-weight:500;}.cls-2{letter-spacing:-0.01em;}.cls-3{letter-spacing:-0.01em;}.cls-3,.cls-4{fill:#000;}.cls-5,.cls-6,.cls-7,.cls-8{fill:none;}.cls-5,.cls-6{stroke:red;}.cls-5,.cls-6,.cls-7{stroke-linejoin:round;stroke-width:5px;}.cls-6{stroke-dasharray:14.12 14.12;}.cls-7,.cls-8{stroke:#000;}.cls-8{stroke-miterlimit:10;stroke-width:7px;stroke-dasharray:32 10;}</style></defs><text class="cls-1" transform="translate(175.75 169.38)"><tspan class="cls-2">F</tspan><tspan x="106.73" y="0">our</tspan><tspan class="cls-3" x="399.09" y="0">P</tspan><tspan class="cls-4" x="524.58" y="0">ager</tspan></text><polyline class="cls-5" points="70.35 86.23 70.35 92.23 64.35 92.23"/><line class="cls-6" x1="50.23" y1="92.23" x2="29.06" y2="92.23"/><polyline class="cls-5" points="22 92.23 16 92.23 16 86.23"/><line class="cls-6" x1="16" y1="72.11" x2="16" y2="50.94"/><polyline class="cls-5" points="16 43.88 16 37.88 22 37.88"/><line class="cls-6" x1="36.12" y1="37.88" x2="57.29" y2="37.88"/><polyline class="cls-5" points="64.35 37.88 70.35 37.88 70.35 43.88"/><line class="cls-6" x1="70.35" y1="58" x2="70.35" y2="79.17"/><rect class="cls-7" x="86.65" y="37.88" width="54.35" height="54.35"/><rect class="cls-7" x="16" y="108.53" width="54.35" height="54.35"/><rect class="cls-7" x="86.65" y="108.53" width="54.35" height="54.35"/><rect class="cls-8" x="3.5" y="25.38" width="150" height="150"/></svg>