<svg id="Layer_1" data-name="Layer 1" xmlns="http://www.w3.org/2000/svg" viewBox="0 0 1092.85 188.69"><defs><style>.cls-1{fill:red;}.cls-2,.cls-3,.cls-4,.cls-5{fill:none;}.cls-2,.cls-3{stroke:red;}.cls-2,.cls-3,.cls-4{stroke-linejoin:round;stroke-width:5px;}.cls-3{stroke-dasharray:14.12 14.12;}.cls-4,.cls-5{stroke:#000;}.cls-5{stroke-miterlimit:10;stroke-width:7px;stroke-dasharray:32 10;}</style></defs><path class="cls-1" d="M391.8,395.6H335.14v59.65H310.68V314.48h89.43v19.73h-65v41.86H391.8Z" transform="translate(-120.63 -307.75)"/><path class="cls-1" d="M410.75,402a61.7,61.7,0,0,1,6.09-27.7A44.48,44.48,0,0,1,434,355.33a48.26,48.26,0,0,1,25.33-6.62q21.18,0,34.37,13.63t14.26,36.16L508,404a62.29,62.29,0,0,1-5.95,27.65,43.93,43.93,0,0,1-17,18.85q-11.08,6.67-25.58,6.67-22.14,0-35.43-14.74t-13.29-39.3Zm23.49,2q0,16.14,6.67,25.28t18.56,9.14q11.89,0,18.52-9.28T484.61,402q0-15.86-6.82-25.14A23,23,0,0,0,441,376.7Q434.25,385.84,434.24,404Z" transform="translate(-120.63 -307.75)"/><path class="cls-1" d="M591.25,445q-10.35,12.18-29.39,12.18-17,0-25.77-9.95t-8.75-28.81V350.64h23.5v67.48q0,19.92,16.53,19.92,17.11,0,23.1-12.28V350.64H614V455.25H591.83Z" transform="translate(-120.63 -307.75)"/><path class="cls-1" d="M692.67,372.11a57.79,57.79,0,0,0-9.58-.78q-16.14,0-21.75,12.38v71.54H637.85V350.64h22.43l.58,11.7q8.5-13.63,23.59-13.63a22,22,0,0,1,8.31,1.35Z" transform="translate(-120.63 -307.75)"/><path d="M734.24,403v52.21H709.78V314.48h53.85q23.58,0,37.46,12.3T815,359.3q0,20.7-13.58,32.23t-38,11.51Zm0-19.72h29.39q13.05,0,19.91-6.14t6.87-17.74q0-11.4-7-18.22t-19.15-7H734.24Z" transform="translate(-120.63 -307.75)"/><path d="M895.5,455.25q-1.54-3-2.71-9.76a36.57,36.57,0,0,1-27.46,11.69q-15.75,0-25.71-9a28.75,28.75,0,0,1-10-22.23q0-16.72,12.42-25.67t35.53-9H892v-6.86q0-8.12-4.55-13t-13.82-4.89q-8,0-13.15,4a12.39,12.39,0,0,0-5.12,10.2h-23.5a26,26,0,0,1,5.71-16.1A38,38,0,0,1,853.11,353,54.58,54.58,0,0,1,875,348.71q18.38,0,29.3,9.23t11.21,26v47.18q0,14.12,4,22.53v1.64Zm-25.81-16.92a26.8,26.8,0,0,0,13.1-3.38,22.65,22.65,0,0,0,9.23-9.09V406.14H879.35q-13.05,0-19.62,4.54a14.72,14.72,0,0,0-6.58,12.86,13.73,13.73,0,0,0,4.5,10.78Q862.15,438.33,869.69,438.33Z" transform="translate(-120.63 -307.75)"/><path d="M936,402.17q0-24.36,11.45-38.91t30.41-14.55q17.88,0,28.13,12.47l1.07-10.54h21.17V452.06q0,20.6-12.81,32.48t-34.56,11.9a55.71,55.71,0,0,1-22.48-4.79q-11-4.78-16.68-12.52L952.83,465q10.83,12.87,26.68,12.86,11.7,0,18.47-6.33t6.77-18.61v-7.06q-10.15,11.31-27.07,11.31-18.37,0-30-14.6T936,402.17Zm23.39,2q0,15.76,6.43,24.8t17.84,9q14.22,0,21.08-12.18v-46q-6.68-11.89-20.89-11.89-11.6,0-18,9.18T959.4,404.2Z" transform="translate(-120.63 -307.75)"/><path d="M1098.43,457.18q-22.34,0-36.21-14.06t-13.87-37.47v-2.9a62.76,62.76,0,0,1,6-28,46.1,46.1,0,0,1,17-19.19,44.88,44.88,0,0,1,24.36-6.86q21.38,0,33,13.63t11.65,38.58v9.47H1072q1.05,13,8.65,20.5t19.09,7.54q16.15,0,26.3-13.05l12.67,12.08A42.43,42.43,0,0,1,1122,452,52.48,52.48,0,0,1,1098.43,457.18Zm-2.8-89.62q-9.68,0-15.62,6.77t-7.59,18.85h44.77v-1.74q-.78-11.79-6.29-17.84T1095.63,367.56Z" transform="translate(-120.63 -307.75)"/><path d="M1213.38,372.11a57.58,57.58,0,0,0-9.57-.78q-16.14,0-21.75,12.38v71.54h-23.5V350.64H1181l.58,11.7q8.52-13.63,23.59-13.63a22.08,22.08,0,0,1,8.32,1.35Z" transform="translate(-120.63 -307.75)"/><polyline class="cls-2" points="70.35 64.35 70.35 70.35 64.35 70.35"/><line class="cls-3" x1="50.23" y1="70.35" x2="29.06" y2="70.35"/><polyline class="cls-2" points="22 70.35 16 70.35 16 64.35"/><line class="cls-3" x1="16" y1="50.23" x2="16" y2="29.06"/><polyline class="cls-2" points="16 22 16 16 22 16"/><line class="cls-3" x1="36.12" y1="16" x2="57.29" y2="16"/><polyline class="cls-2" points="64.35 16 70.35 16 70.35 22"/><line class="cls-3" x1="70.35" y1="36.12" x2="70.35" y2="57.29"/><rect class="cls-4" x="86.65" y="16" width="54.35" height="54.35"/><rect class="cls-4" x="16" y="86.65" width="54.35" height="54.35"/><rect class="cls-4" x="86.65" y="86.65" width="54.35" height="54.35"/><rect class="cls-5" x="3.5" y="3.5" width="150" height="150"/></svg>